<?xml version="1.0" encoding="UTF-8" standalone="no"?>
<!-- Created with Inkscape (http://www.inkscape.org/) -->

<svg
   xmlns:dc="http://purl.org/dc/elements/1.1/"
   xmlns:cc="http://creativecommons.org/ns#"
   xmlns:rdf="http://www.w3.org/1999/02/22-rdf-syntax-ns#"
   xmlns:svg="http://www.w3.org/2000/svg"
   xmlns="http://www.w3.org/2000/svg"
   xmlns:sodipodi="http://sodipodi.sourceforge.net/DTD/sodipodi-0.dtd"
   xmlns:inkscape="http://www.inkscape.org/namespaces/inkscape"
   width="210mm"
   height="297mm"
   viewBox="0 0 210 297"
   version="1.1"
   id="svg8"
   sodipodi:docname="continent3.svg"
   inkscape:version="0.92.3 (2405546, 2018-03-11)">
  <defs
     id="defs2">
    <inkscape:path-effect
       effect="simplify"
       id="path-effect1402"
       is_visible="true"
       steps="2"
       threshold="0.001"
       smooth_angles="0"
       helper_size="5"
       simplify_individual_paths="false"
       simplify_just_coalesce="false" />
    <inkscape:path-effect
       effect="simplify"
       id="path-effect1398"
       is_visible="true"
       steps="4"
       threshold="0.0005"
       smooth_angles="0"
       helper_size="5"
       simplify_individual_paths="false"
       simplify_just_coalesce="false" />
  </defs>
  <sodipodi:namedview
     id="base"
     pagecolor="#ffffff"
     bordercolor="#666666"
     borderopacity="1.0"
     inkscape:pageopacity="0.0"
     inkscape:pageshadow="2"
     inkscape:zoom="0.35355339"
     inkscape:cx="1891.435"
     inkscape:cy="522.12132"
     inkscape:document-units="mm"
     inkscape:current-layer="layer2"
     showgrid="false"
     inkscape:window-width="1920"
     inkscape:window-height="1017"
     inkscape:window-x="-8"
     inkscape:window-y="-8"
     inkscape:window-maximized="1" />
  <metadata
     id="metadata5">
    <rdf:RDF>
      <cc:Work
         rdf:about="">
        <dc:format>image/svg+xml</dc:format>
        <dc:type
           rdf:resource="http://purl.org/dc/dcmitype/StillImage" />
        <dc:title />
      </cc:Work>
    </rdf:RDF>
  </metadata>
  <g
     inkscape:groupmode="layer"
     id="layer2"
     inkscape:label="Layer 2">
    <path
       style="opacity:1;fill:#dcd2a9;fill-opacity:1;stroke-width:0.17386247"
       d="m 629.90255,122.33281 c 0.9491,-2.48279 3.5312,-3.95055 4.3828,-6.46184 0.2685,-2.68145 0.4106,-5.4305 -0.083,-8.09181 -0.5512,-2.45943 -2.0065,-4.56429 -3.1495,-6.76031 0.028,-1.87928 2.3197,-3.58313 0.6644,-5.52159 -1.224,-1.96699 -3.0542,-3.61055 -3.7913,-5.85518 -0.052,-1.44417 -0.1697,-2.97001 -1.0742,-4.18215 -0.7523,-1.26687 -2.0192,-2.06293 -3.0623,-3.0426 -1.0958,-1.47227 -0.5213,-3.59643 -1.7632,-5.00082 -1.0017,-2.46059 -1.9771,-4.94355 -3.0381,-7.37161 -0.4614,-2.49007 1.325,-5.07543 -0.01,-7.46417 -1.1802,-2.86841 -3.3059,-5.78796 -2.432,-9.04958 0.582,-2.88804 2.8191,-5.49292 5.7748,-6.05959 1.9621,-0.82061 4.5834,-0.9826 5.6612,-3.102 0.6753,-1.88911 1.4059,-4.38859 3.6564,-4.86263 1.8327,-0.51876 2.6599,-2.67332 1.9081,-4.35265 -0.6367,-2.86841 -1.562,-5.65803 -2.3436,-8.48643 -0.4439,-1.11226 -0.9558,-2.58443 -2.1822,-2.97346 -2.0172,-0.48394 -3.5463,-2.03646 -4.6804,-3.69391 -1.1339,-1.58613 -3.6496,-1.89868 -4.6422,0.0171 -0.9054,1.15593 -1.8368,2.85205 -3.5478,2.67356 -1.6225,-1.45528 -1.3003,-3.835487 -1.4112,-5.794681 0.089,-2.078599 0.7206,-4.075451 1.1842,-6.089124 0,-2.252009 -2.7016,-2.407761 -4.3526,-2.1957 -2.0417,-0.09409 -4.0872,0.832146 -6.1067,0.30321 -1.5613,-0.683252 -2.2129,-2.938309 -4.1364,-2.822639 -0.8969,0.09741 -4.0237,-0.107336 -2.489,1.456566 1.4654,1.613421 4.1591,1.536922 5.2446,3.600791 0.9692,1.801104 2.273,3.586515 2.4529,5.675784 0.1036,3.131473 -1.6897,5.864843 -2.6122,8.755683 -0.7136,1.69297 -1.7532,3.50383 -1.1454,5.39221 0.3988,1.42825 0.7502,2.87602 0.699,4.36826 0.217,2.34431 -0.1689,4.8305 -1.6894,6.70577 -1.308,1.82763 -3.0473,3.74688 -2.764,6.17223 -0.019,2.04984 1.5042,3.53328 2.3511,5.23855 1.0435,2.61751 0.1386,5.50161 -1.2232,7.81745 -1.0237,1.92727 -1.7778,4.08569 -1.5077,6.29504 -0.1274,1.95028 -0.2923,4.05127 0.7901,5.78752 0.8878,1.83551 -1.423,3.35881 -1.4607,4.76196 1.1408,1.66914 1.3823,3.7221 1.4112,5.68835 0.2327,1.62012 1.2699,3.02158 1.361,4.67273 -1.0331,1.29869 -1.8655,3.03484 -0.5206,4.47135 0.8981,1.50348 1.3032,3.22776 2.0427,4.77979 1.227,1.43181 3.5526,2.31386 3.2834,4.58245 -0.1705,1.49046 0.2238,3.03444 1.983,3.03095 1.4124,0.28538 3.0383,0.51329 3.9338,1.78819 1.2545,1.6162 3.1538,2.60005 4.3866,4.20476 1.2181,1.88647 2.3618,3.8227 3.5652,5.71594 1.1689,1.26918 1.1141,4.3746 3.264,4.06445 1.7988,0.10806 3.7672,0.12838 5.3335,1.10426 0.5045,0.5094 1.8045,1.53005 1.883,0.10958 z"
       id="path4866"
       inkscape:connector-curvature="0" />
  </g>
</svg>
