<?xml version="1.0" encoding="UTF-8" standalone="no"?>
<!-- Created with Inkscape (http://www.inkscape.org/) -->

<svg
   xmlns:dc="http://purl.org/dc/elements/1.1/"
   xmlns:cc="http://creativecommons.org/ns#"
   xmlns:rdf="http://www.w3.org/1999/02/22-rdf-syntax-ns#"
   xmlns:svg="http://www.w3.org/2000/svg"
   xmlns="http://www.w3.org/2000/svg"
   xmlns:sodipodi="http://sodipodi.sourceforge.net/DTD/sodipodi-0.dtd"
   xmlns:inkscape="http://www.inkscape.org/namespaces/inkscape"
   width="210mm"
   height="297mm"
   viewBox="0 0 210 297"
   version="1.1"
   id="svg8"
   sodipodi:docname="continent1.svg"
   inkscape:version="0.92.3 (2405546, 2018-03-11)">
  <defs
     id="defs2">
    <inkscape:path-effect
       effect="simplify"
       id="path-effect1402"
       is_visible="true"
       steps="2"
       threshold="0.001"
       smooth_angles="0"
       helper_size="5"
       simplify_individual_paths="false"
       simplify_just_coalesce="false" />
    <inkscape:path-effect
       effect="simplify"
       id="path-effect1398"
       is_visible="true"
       steps="4"
       threshold="0.0005"
       smooth_angles="0"
       helper_size="5"
       simplify_individual_paths="false"
       simplify_just_coalesce="false" />
  </defs>
  <sodipodi:namedview
     id="base"
     pagecolor="#ffffff"
     bordercolor="#666666"
     borderopacity="1.0"
     inkscape:pageopacity="0.0"
     inkscape:pageshadow="2"
     inkscape:zoom="0.35355339"
     inkscape:cx="2188.3192"
     inkscape:cy="1007.8458"
     inkscape:document-units="mm"
     inkscape:current-layer="layer2"
     showgrid="false"
     inkscape:window-width="1920"
     inkscape:window-height="1017"
     inkscape:window-x="-8"
     inkscape:window-y="-8"
     inkscape:window-maximized="1" />
  <metadata
     id="metadata5">
    <rdf:RDF>
      <cc:Work
         rdf:about="">
        <dc:format>image/svg+xml</dc:format>
        <dc:type
           rdf:resource="http://purl.org/dc/dcmitype/StillImage" />
        <dc:title></dc:title>
      </cc:Work>
    </rdf:RDF>
  </metadata>
  <g
     inkscape:groupmode="layer"
     id="layer2"
     inkscape:label="Layer 2">
    <path
       style="opacity:1;fill:#dcd2a9;fill-opacity:1;stroke-width:0.17386247"
       d="m 492.01075,-23.137528 c -2.0276,0.367019 -2.2804,3.034154 -4.1822,3.632854 -1.6713,1.339751 -1.1129,3.668254 -1.3756,5.52421 0.2942,1.946562 1.351,3.878193 3.2618,4.628141 2.0029,0.433877 1.6196,2.944069 3.2706,3.7734132 1.2886,0.54806 2.9959,0.4399947 3.6013,2.0226157 1.1445,2.3796858 1.263,5.3280326 3.2779,7.2367674 1.2349,0.88119 2.9033,1.0368573 4.0374,2.1218345 1.8376,1.7292095 1.7224,4.5528092 1.4056,6.8574622 -0.2448,2.006748 -0.9893,4.284387 0.4129,6.055444 1.1514,1.834396 3.3846,2.900017 5.5273,2.378666 2.3991,-0.496499 4.6698,-1.441562 6.8818,-2.469099 2.3407,-0.655947 4.1876,1.310668 5.8363,2.637048 1.3213,1.24876 3.2656,0.826345 4.5186,-0.270784 1.3553,-1.020241 2.7847,-2.262093 4.5977,-2.167827 2.7949,-0.256376 6.0001,-0.491294 8.3338,1.359607 1.5684,1.72895 0.7916,4.579772 -0.9715,5.867342 -1.8451,1.712539 -4.4571,2.270098 -6.2838,4.007509 -1.0946,1.969828 2.0717,1.974087 2.8933,3.095415 1.8574,1.810422 2.766,4.463214 2.4428,7.033165 -0.2597,3.091379 -1.7176,6.296221 -4.5889,7.768 -1.8093,1.313961 -4.0992,0.337704 -5.781,-0.691946 -1.215,-1.159931 -3.1577,-1.024618 -3.5776,0.815453 -0.46,1.436569 -2.0892,2.439811 -3.5295,1.703772 -2.2814,-1.207511 -4.8806,-1.886075 -7.4605,-1.853634 -1.7614,0.367559 -1.2661,2.538539 0.3405,2.665471 2.1637,1.662019 2.0754,4.647178 2.5451,7.083287 0.3514,2.434452 0.4639,4.893797 0.5974,7.347357 -1.0015,1.61857 -1.6792,3.57818 -3.0422,4.88859 -1.196,1.035201 -1.1584,3.315936 -2.975,3.594095 -1.1044,0.0365 -3.1622,-1.566365 -2.8386,0.673343 -0.028,2.199841 0.095,4.538768 -1.1178,6.491078 -0.8283,2.07889 -3.0865,2.600556 -4.7051,3.830257 -1.4,1.070239 -2.2366,2.772481 -4.0282,3.30264 -1.7205,0.730052 -3.5103,1.53769 -4.6158,3.12229 -1.9607,2.355889 -2.9115,5.413049 -3.2835,8.410339 0.023,2.427642 3.0795,1.970722 4.0613,3.574982 1.0823,1.41696 -0.6385,3.5689 1.4268,4.19871 1.6068,0.9777 1.4207,2.94156 1.5565,4.56096 -0.045,1.43918 0.8006,3.26195 2.5084,2.91403 1.8761,0.18956 2.4562,2.30988 2.6876,3.87883 0.4335,2.89636 1.5635,5.663 3.0913,8.15093 3.148,1.65877 4.6002,5.16621 5.5749,8.3969 -0.1544,2.05848 2.6757,2.94007 2.8861,0.54054 1.26,-2.46203 3.3255,-4.3493 5.4069,-6.10661 1.4418,-1.39656 2.6682,-3.03586 3.4856,-4.87515 1.7583,-1.64102 0.2933,-3.96478 -1.3265,-5.00021 -0.8331,-0.90067 -2.9781,-1.97355 -2.7493,-3.00654 1.3472,-0.22567 4.2654,2.18378 4.2076,-0.45165 -0.062,-1.94703 0.1215,-3.89422 0.3741,-5.81412 -0.2065,-1.90475 -2.1208,-3.15805 -2.1146,-5.12991 -0.5714,-1.97198 -1.4111,-3.96974 -1.1576,-6.065784 2.0162,0.797657 0.9422,3.413624 1.9136,4.945954 0.6468,1.76935 1.8095,3.27425 2.8324,4.83484 0.4173,1.98023 -1.1293,3.83145 -0.5529,5.81877 0.1817,1.78066 -0.8703,3.66588 0.123,5.33921 1.6864,1.13281 3.4178,2.5402 5.5185,2.68201 2.0807,-0.23045 3.1867,-2.21571 4.5863,-3.51297 1.9498,-0.31729 4.0822,-0.7362 5.997,-0.41083 3.1269,1.39176 6.5551,3.03392 10.0562,2.15026 1.8868,-0.57924 3.4343,-2.0187 4.5404,-3.6158 1.009,-1.45194 1.2659,-3.23251 1.2738,-4.95628 0.2036,-1.77001 1.4568,-3.1863 1.911,-4.85242 -0.1508,-1.75509 -2.3543,-2.36218 -2.6748,-4.09226 -0.2587,-1.9874 3.0801,-3.19363 1.1498,-5.167126 -1.2974,-1.572022 -2.5988,-3.141358 -4.1093,-4.518589 -1.216,-1.222859 -2.6078,-3.003756 -1.9322,-4.820377 0.706,-1.47301 2.9539,-1.938216 2.9285,-3.798218 0.2915,-4.474499 2.5804,-8.522581 3.2045,-12.943911 0.2807,-2.45627 0.7948,-4.939607 2.1709,-7.041949 0.8679,-1.225783 1.8377,-2.769111 3.2086,-3.396692 0,-7.94e-4 0,-0.0013 0,-0.0021 0.027,-0.03863 0.054,-0.07691 0.08,-0.115755 0.035,-0.04901 0.071,-0.0983 0.1049,-0.147793 0.043,-0.05783 0.084,-0.116346 0.125,-0.175702 0.047,-0.06735 0.096,-0.133369 0.1447,-0.19947 0.048,-0.06487 0.093,-0.132582 0.1375,-0.199988 0.045,-0.06987 0.089,-0.141261 0.1302,-0.213423 0.047,-0.07639 0.085,-0.15693 0.1256,-0.236678 0.041,-0.08358 0.081,-0.167492 0.1204,-0.252182 0.033,-0.0706 0.059,-0.143889 0.086,-0.217041 -0.033,0.0024 -0.066,0.0045 -0.1008,0.0036 0.2822,-1.42046 1.065,-2.750743 0.9741,-4.268472 0.072,-2.82911 0.3693,-5.641023 0.4884,-8.467183 0.054,-1.957652 0.7957,-3.791249 1.8329,-5.425509 1.196,-2.332331 2.8345,-4.66535 5.424,-5.554699 2.5926,-1.102881 5.4413,-1.44935 7.985,-2.675805 1.8558,-0.676183 4.046,-1.063292 5.8787,-0.139012 2.0294,0.136371 1.6155,-2.495865 2.2418,-3.755327 1.3776,-3.427257 3.8367,-6.298032 5.2684,-9.687262 0.3895,-1.917552 1.1233,-3.873328 0.8397,-5.843571 -0.7623,-1.84259 -3.3577,-2.463329 -3.4737,-4.6503625 -0.7842,-2.1888029 0.9266,-4.04971 1.9761,-5.7882771 1.544,-2.4492787 3.7968,-4.3075297 5.7733,-6.3856564 1.0616,-0.917557 2.2149,-2.1449411 3.7595,-1.7849041 1.545,0.333397 2.6583,-0.7797138 3.0313,-2.0241659 1.7963,-0.518808 3.9733,0.1578806 5.2659,-1.628324 1.3859,-0.786596 2.6335,-3.302168 4.3728,-2.118734 1.6451,0.693297 3.5786,1.058845 5.2508,0.241846 0.967,-0.260876 1.8959,0.06141 2.8169,0.40876 0,-0.183282 -0.01,-0.366472 -0.01,-0.549837 0.01,-0.223397 0.011,-0.447321 0.019,-0.67076 0.01,-0.228057 0.012,-0.456159 0.018,-0.684196 0.01,-0.229286 0.01,-0.458447 0.01,-0.687813 0,-0.232171 0,-0.464264 -0.018,-0.696082 -0.012,-0.233951 -0.024,-0.467991 -0.039,-0.701766 -0.015,-0.228731 -0.03,-0.457248 -0.059,-0.684713 -0.027,-0.238053 -0.056,-0.475898 -0.077,-0.714685 -0.023,-0.233241 -0.049,-0.466543 -0.077,-0.699182 -0.029,-0.233612 -0.062,-0.466613 -0.086,-0.700732 -0.025,-0.22897 -0.053,-0.458048 -0.084,-0.686263 -0.032,-0.227227 -0.066,-0.454135 -0.1,-0.681095 -0.029,-0.223118 -0.06,-0.445981 -0.095,-0.668177 -0.035,-0.223688 -0.069,-0.447443 -0.1,-0.671793 -0.034,-0.22294 -0.069,-0.445491 -0.097,-0.66921 -0.031,-0.220773 -0.066,-0.440961 -0.099,-0.661458 -0.029,-0.218737 -0.06,-0.437307 -0.091,-0.655774 -0.026,-0.212274 -0.056,-0.423824 -0.077,-0.636654 -0.022,-0.212671 -0.046,-0.425241 -0.059,-0.638721 -0.015,-0.206401 -0.025,-0.413311 -0.032,-0.620117 0,-0.05458 0,-0.109196 0,-0.163814 -10.4196,0.24665 -20.8404,0.439982 -31.2632,0.507462 -21.0317,0.196016 -42.0648,-0.0075 -63.0933,-0.379821 -12.2126,-0.07919 -24.4286,-0.196663 -36.6396,-0.165365 z"
       id="path6538"
       inkscape:connector-curvature="0" />
  </g>
</svg>
